<svg width="160" height="75" viewBox="0 0 160 75" fill="none" xmlns="http://www.w3.org/2000/svg">
<rect width="159.574" height="75" rx="4" fill="black"/>
<path d="M31.0781 19.875V54H24.0469V19.875H31.0781ZM44.6719 34.4531V39.9375H29.1562V34.4531H44.6719ZM46.3125 19.875V25.3828H29.1562V19.875H46.3125ZM75.6891 48.5156V54H57.525V48.5156H75.6891ZM59.8219 19.875V54H52.7906V19.875H59.8219ZM73.3219 33.7734V39.1172H57.525V33.7734H73.3219ZM75.6656 19.875V25.3828H57.525V19.875H75.6656ZM105.089 48.5156V54H86.925V48.5156H105.089ZM89.2219 19.875V54H82.1906V19.875H89.2219ZM102.722 33.7734V39.1172H86.925V33.7734H102.722ZM105.066 19.875V25.3828H86.925V19.875H105.066ZM122.067 54H114.637L114.684 48.5156H122.067C123.911 48.5156 125.466 48.1016 126.731 47.2734C127.997 46.4297 128.95 45.2031 129.591 43.5938C130.247 41.9844 130.575 40.0391 130.575 37.7578V36.0938C130.575 34.3438 130.387 32.8047 130.012 31.4766C129.653 30.1484 129.114 29.0312 128.395 28.125C127.677 27.2188 126.794 26.5391 125.747 26.0859C124.7 25.6172 123.497 25.3828 122.137 25.3828H114.497V19.875H122.137C124.419 19.875 126.505 20.2656 128.395 21.0469C130.302 21.8125 131.95 22.9141 133.341 24.3516C134.731 25.7891 135.802 27.5078 136.552 29.5078C137.317 31.4922 137.7 33.7031 137.7 36.1406V37.7578C137.7 40.1797 137.317 42.3906 136.552 44.3906C135.802 46.3906 134.731 48.1094 133.341 49.5469C131.966 50.9688 130.317 52.0703 128.395 52.8516C126.489 53.6172 124.38 54 122.067 54ZM118.622 19.875V54H111.591V19.875H118.622Z" fill="white"/>
</svg>
